<svg
  width="36"
  height="44"
  viewBox="0 0 36 44"
  fill="none"
  xmlns="http://www.w3.org/2000/svg"
>
  <path
    d="M35.9996 0.000100429C35.9078 0.01107 35.8442 0.00747967 35.7934 0.0269257C35.6477 0.0825713 35.502 0.140709 35.3653 0.209718C33.4931 1.15499 31.8742 2.33691 30.5089 3.75458C27.769 6.59969 26.4341 9.86951 26.0879 13.4653C25.9037 15.3811 25.5657 17.2867 25.3052 19.1976C25.1734 20.1636 25.0604 21.1313 24.9377 22.1062C26.0879 21.95 26.9809 22.2974 27.7463 22.8716C28.794 23.6578 28.9676 24.9307 28.0713 25.8368C27.6613 26.2513 27.0403 26.5462 26.4594 26.8247C26.4376 26.835 26.4163 26.8449 26.3953 26.8543C26.718 27.6011 26.9807 28.4067 27.1602 29.2722C27.2283 29.2516 27.3013 29.2297 27.3432 29.2176C29.775 28.5143 31.2728 27.1492 31.6396 25.0193C31.9519 23.2057 30.7409 21.2831 28.6807 20.3092C28.3291 20.143 28.2176 19.9872 28.2675 19.6535C28.5837 17.5306 28.9194 15.4083 29.1529 13.2787C29.3693 11.3062 30.0378 9.48248 31.0826 7.68926C31.5699 6.85268 32.9543 5.18551 32.9543 5.18551C32.9543 5.18551 32.9543 23.8427 32.9543 33.122H20.7323V35.3707H22.7802C22.1662 37.7938 20.6782 39.4151 19.5228 40.3552V32.7098C19.6955 32.1123 20.2417 31.3128 21.8712 30.9108C21.9533 30.8906 22.0352 30.8671 22.1173 30.8436C22.0642 30.4856 22.0059 30.192 21.9937 30.0341C21.9147 29.5082 21.7985 29.0175 21.6566 28.5585C21.3732 28.6326 21.1382 28.6964 20.9705 28.7464C19.9438 29.0524 18.3471 30.1587 18.005 30.3867C17.6631 30.1587 16.0663 29.0524 15.0397 28.7464C14.8719 28.6964 14.6368 28.6326 14.3536 28.5585C14.2118 29.0175 14.0954 29.5081 14.0165 30.0341C14.0041 30.192 13.946 30.4856 13.8929 30.8436C13.9749 30.8671 14.0569 30.8906 14.139 30.9108C15.7378 31.3053 16.2937 32.0826 16.4773 32.6761V40.3262C15.3279 39.3714 13.8479 37.7445 13.227 35.3705H15.2879V33.1219H3.04539V5.18541C3.04539 5.18541 4.42965 6.85269 4.91708 7.68916C5.96184 9.48229 6.63033 11.3061 6.84671 13.2786C7.08038 15.4081 7.41589 17.5305 7.73218 19.6534C7.78201 19.9872 7.67049 20.1429 7.31889 20.3091C5.25876 21.2831 4.04769 23.2057 4.35998 25.0192C4.72682 27.149 6.22466 28.5142 8.65647 29.2175C8.69639 29.2291 8.76472 29.2495 8.83028 29.2694C9.00493 28.3982 9.26134 27.5895 9.57726 26.8417C9.56492 26.836 9.55283 26.8305 9.54025 26.8246C8.95933 26.5461 8.33825 26.2512 7.92836 25.8367C7.032 24.9306 7.20556 23.6576 8.25335 22.8715C9.01872 22.2973 9.91169 21.9499 11.0619 22.1061C10.9393 21.1312 10.8262 20.1635 10.6945 19.1975C10.4341 17.2866 10.096 15.381 9.91168 13.4652C9.56565 9.86941 8.23073 6.59959 5.49074 3.75448C4.12546 2.33682 2.50656 1.155 0.634379 0.209619C0.497585 0.14061 0.351963 0.0824709 0.206219 0.0268253C0.15542 0.00747896 0.0918006 0.0110693 0 0V35.3708H9.95148C11.4815 41.3199 17.9998 44 17.9998 44C17.9998 44 24.5514 41.4378 26.06 35.3708H36V0L35.9996 0.000100429Z"
    fill="white"
  />
</svg>